<svg width="123" height="35" viewBox="0 0 123 35" fill="none" xmlns="http://www.w3.org/2000/svg">
<path d="M46.224 8.864C47.648 8.864 48.84 9 49.8 9.272C50.776 9.544 51.504 9.992 51.984 10.616C52.48 11.24 52.728 12.072 52.728 13.112C52.728 13.784 52.6 14.384 52.344 14.912C52.104 15.424 51.736 15.856 51.24 16.208C50.76 16.544 50.168 16.776 49.464 16.904V17.024C50.184 17.136 50.832 17.344 51.408 17.648C52 17.952 52.464 18.384 52.8 18.944C53.136 19.504 53.304 20.232 53.304 21.128C53.304 22.168 53.064 23.056 52.584 23.792C52.104 24.512 51.416 25.064 50.52 25.448C49.64 25.816 48.584 26 47.352 26H41.328V8.864H46.224ZM46.656 16.16C48.128 16.16 49.136 15.928 49.68 15.464C50.224 14.984 50.496 14.28 50.496 13.352C50.496 12.408 50.16 11.736 49.488 11.336C48.832 10.92 47.776 10.712 46.32 10.712H43.488V16.16H46.656ZM43.488 17.96V24.176H46.944C48.464 24.176 49.52 23.88 50.112 23.288C50.704 22.696 51 21.92 51 20.96C51 20.352 50.864 19.824 50.592 19.376C50.336 18.928 49.896 18.584 49.272 18.344C48.664 18.088 47.832 17.96 46.776 17.96H43.488ZM67.4014 13.136V26H65.6734L65.3614 24.296H65.2654C64.9934 24.744 64.6414 25.112 64.2094 25.4C63.7774 25.688 63.3054 25.896 62.7934 26.024C62.2814 26.168 61.7454 26.24 61.1854 26.24C60.1614 26.24 59.2974 26.08 58.5934 25.76C57.9054 25.424 57.3854 24.912 57.0334 24.224C56.6814 23.536 56.5054 22.648 56.5054 21.56V13.136H58.6414V21.416C58.6414 22.44 58.8734 23.208 59.3374 23.72C59.8014 24.232 60.5214 24.488 61.4974 24.488C62.4574 24.488 63.2094 24.312 63.7534 23.96C64.3134 23.592 64.7054 23.064 64.9294 22.376C65.1694 21.672 65.2894 20.824 65.2894 19.832V13.136H67.4014ZM76.0453 12.896C76.8933 12.896 77.6533 13.056 78.3253 13.376C79.0133 13.696 79.5973 14.184 80.0773 14.84H80.1973L80.4853 13.136H82.1653V26.216C82.1653 27.432 81.9573 28.448 81.5413 29.264C81.1253 30.096 80.4933 30.72 79.6453 31.136C78.7973 31.552 77.7173 31.76 76.4053 31.76C75.4773 31.76 74.6213 31.688 73.8373 31.544C73.0693 31.416 72.3813 31.216 71.7733 30.944V29C72.1893 29.208 72.6453 29.384 73.1413 29.528C73.6373 29.688 74.1733 29.808 74.7493 29.888C75.3253 29.968 75.9173 30.008 76.5253 30.008C77.6293 30.008 78.4933 29.68 79.1173 29.024C79.7573 28.384 80.0773 27.504 80.0773 26.384V25.88C80.0773 25.688 80.0853 25.416 80.1013 25.064C80.1173 24.696 80.1333 24.44 80.1493 24.296H80.0533C79.6053 24.952 79.0453 25.44 78.3733 25.76C77.7173 26.08 76.9493 26.24 76.0693 26.24C74.4053 26.24 73.1013 25.656 72.1573 24.488C71.2293 23.32 70.7653 21.688 70.7653 19.592C70.7653 18.216 70.9733 17.032 71.3893 16.04C71.8213 15.032 72.4293 14.256 73.2133 13.712C73.9973 13.168 74.9413 12.896 76.0453 12.896ZM76.3333 14.672C75.6133 14.672 74.9973 14.864 74.4853 15.248C73.9893 15.632 73.6053 16.192 73.3333 16.928C73.0773 17.664 72.9493 18.56 72.9493 19.616C72.9493 21.2 73.2373 22.416 73.8133 23.264C74.4053 24.096 75.2613 24.512 76.3813 24.512C77.0373 24.512 77.5973 24.432 78.0613 24.272C78.5253 24.096 78.9093 23.832 79.2133 23.48C79.5173 23.112 79.7413 22.648 79.8853 22.088C80.0293 21.528 80.1013 20.864 80.1013 20.096V19.592C80.1013 18.424 79.9653 17.48 79.6933 16.76C79.4373 16.04 79.0293 15.512 78.4693 15.176C77.9093 14.84 77.1973 14.672 76.3333 14.672ZM90.8109 12.896C91.6589 12.896 92.4189 13.056 93.0909 13.376C93.7789 13.696 94.3629 14.184 94.8429 14.84H94.9629L95.2509 13.136H96.9309V26.216C96.9309 27.432 96.7229 28.448 96.3069 29.264C95.8909 30.096 95.2589 30.72 94.4109 31.136C93.5629 31.552 92.4829 31.76 91.1709 31.76C90.2429 31.76 89.3869 31.688 88.6029 31.544C87.8349 31.416 87.1469 31.216 86.5389 30.944V29C86.9549 29.208 87.4109 29.384 87.9069 29.528C88.4029 29.688 88.9389 29.808 89.5149 29.888C90.0909 29.968 90.6829 30.008 91.2909 30.008C92.3949 30.008 93.2589 29.68 93.8829 29.024C94.5229 28.384 94.8429 27.504 94.8429 26.384V25.88C94.8429 25.688 94.8509 25.416 94.8669 25.064C94.8829 24.696 94.8989 24.44 94.9149 24.296H94.8189C94.3709 24.952 93.8109 25.44 93.1389 25.76C92.4829 26.08 91.7149 26.24 90.8349 26.24C89.1709 26.24 87.8669 25.656 86.9229 24.488C85.9949 23.32 85.5309 21.688 85.5309 19.592C85.5309 18.216 85.7389 17.032 86.1549 16.04C86.5869 15.032 87.1949 14.256 87.9789 13.712C88.7629 13.168 89.7069 12.896 90.8109 12.896ZM91.0989 14.672C90.3789 14.672 89.7629 14.864 89.2509 15.248C88.7549 15.632 88.3709 16.192 88.0989 16.928C87.8429 17.664 87.7149 18.56 87.7149 19.616C87.7149 21.2 88.0029 22.416 88.5789 23.264C89.1709 24.096 90.0269 24.512 91.1469 24.512C91.8029 24.512 92.3629 24.432 92.8269 24.272C93.2909 24.096 93.6749 23.832 93.9789 23.48C94.2829 23.112 94.5069 22.648 94.6509 22.088C94.7949 21.528 94.8669 20.864 94.8669 20.096V19.592C94.8669 18.424 94.7309 17.48 94.4589 16.76C94.2029 16.04 93.7949 15.512 93.2349 15.176C92.6749 14.84 91.9629 14.672 91.0989 14.672ZM109.393 22.448C109.393 23.28 109.185 23.976 108.769 24.536C108.353 25.096 107.761 25.52 106.993 25.808C106.225 26.096 105.313 26.24 104.257 26.24C103.361 26.24 102.585 26.168 101.929 26.024C101.289 25.88 100.721 25.68 100.225 25.424V23.504C100.737 23.76 101.353 24 102.073 24.224C102.809 24.432 103.553 24.536 104.305 24.536C105.377 24.536 106.153 24.368 106.633 24.032C107.113 23.68 107.353 23.216 107.353 22.64C107.353 22.32 107.265 22.032 107.089 21.776C106.913 21.52 106.593 21.264 106.129 21.008C105.681 20.752 105.033 20.464 104.185 20.144C103.353 19.824 102.641 19.504 102.049 19.184C101.457 18.864 101.001 18.48 100.681 18.032C100.361 17.584 100.201 17.008 100.201 16.304C100.201 15.216 100.641 14.376 101.521 13.784C102.417 13.192 103.585 12.896 105.025 12.896C105.809 12.896 106.537 12.976 107.209 13.136C107.897 13.28 108.537 13.488 109.129 13.76L108.409 15.44C108.057 15.28 107.681 15.144 107.281 15.032C106.897 14.904 106.505 14.808 106.105 14.744C105.705 14.664 105.297 14.624 104.881 14.624C104.017 14.624 103.353 14.768 102.889 15.056C102.441 15.328 102.217 15.704 102.217 16.184C102.217 16.536 102.321 16.84 102.529 17.096C102.737 17.336 103.081 17.576 103.561 17.816C104.057 18.04 104.713 18.312 105.529 18.632C106.345 18.936 107.041 19.248 107.617 19.568C108.193 19.888 108.633 20.28 108.937 20.744C109.241 21.192 109.393 21.76 109.393 22.448ZM110.485 13.136H112.741L115.525 20.456C115.685 20.888 115.829 21.304 115.957 21.704C116.101 22.104 116.229 22.496 116.341 22.88C116.453 23.248 116.541 23.608 116.605 23.96H116.701C116.797 23.56 116.949 23.04 117.157 22.4C117.365 21.744 117.581 21.088 117.805 20.432L120.421 13.136H122.701L117.157 27.776C116.853 28.576 116.493 29.272 116.077 29.864C115.677 30.472 115.181 30.936 114.589 31.256C114.013 31.592 113.309 31.76 112.477 31.76C112.093 31.76 111.757 31.736 111.469 31.688C111.181 31.656 110.933 31.616 110.725 31.568V29.888C110.901 29.92 111.109 29.952 111.349 29.984C111.605 30.016 111.869 30.032 112.141 30.032C112.637 30.032 113.061 29.936 113.413 29.744C113.781 29.568 114.093 29.304 114.349 28.952C114.605 28.616 114.821 28.216 114.997 27.752L115.669 26.048L110.485 13.136Z" fill="black"/>
<rect width="35" height="35" fill="black"/>
<path d="M20.0469 28H9.26562V26.0312L11.8125 25.5938V7.67188L9.26562 7.23438V5.25H19.0781C21.4531 5.25 23.3073 5.76562 24.6406 6.79688C25.9844 7.81771 26.6562 9.35417 26.6562 11.4062C26.6562 12.4167 26.3333 13.3229 25.6875 14.125C25.0521 14.9167 24.2083 15.5052 23.1562 15.8906C24.0833 16.0781 24.8698 16.4427 25.5156 16.9844C26.8906 18.1302 27.5781 19.6615 27.5781 21.5781C27.5781 23.6615 26.901 25.2552 25.5469 26.3594C24.1927 27.4531 22.3594 28 20.0469 28ZM19.0781 7.67188H14.8906V14.9219H19.875C20.9792 14.9219 21.8698 14.6042 22.5469 13.9688C23.2344 13.3229 23.5781 12.4479 23.5781 11.3438C23.5781 10.1146 23.1927 9.19792 22.4219 8.59375C21.651 7.97917 20.5365 7.67188 19.0781 7.67188ZM20.5156 17.3281H14.8906V25.5938H20.0469C21.4531 25.5938 22.5417 25.25 23.3125 24.5625C24.0938 23.8646 24.4844 22.8802 24.4844 21.6094C24.4844 20.7135 24.3438 19.9479 24.0625 19.3125C23.7708 18.6771 23.3281 18.1875 22.7344 17.8438C22.151 17.5 21.4115 17.3281 20.5156 17.3281Z" fill="white"/>
</svg>
